<svg width="173" height="104" xmlns="http://www.w3.org/2000/svg"><defs><radialGradient cx="49.995%" cy="49.994%" fx="49.995%" fy="49.994%" r="64.66%" gradientTransform="matrix(.65305 0 0 1 .173 0)" id="a"><stop stop-color="#B9DBF5" offset="0%"/><stop stop-color="#AED1EF" offset="20.91%"/><stop stop-color="#91B5DF" offset="57.45%"/><stop stop-color="#688DC8" offset="100%"/></radialGradient><radialGradient cx="50.001%" cy="50.022%" fx="50.001%" fy="50.022%" r="76.168%" gradientTransform="matrix(.52407 0 0 1 .238 0)" id="b"><stop stop-color="#B9DBF5" offset="0%"/><stop stop-color="#AED1EF" offset="20.91%"/><stop stop-color="#91B5DF" offset="57.45%"/><stop stop-color="#688DC8" offset="100%"/></radialGradient><radialGradient cx="49.996%" cy="50.004%" fx="49.996%" fy="50.004%" r="64.66%" gradientTransform="matrix(.65307 0 0 1 .173 0)" id="c"><stop stop-color="#B9DBF5" offset="0%"/><stop stop-color="#AED1EF" offset="20.91%"/><stop stop-color="#91B5DF" offset="57.45%"/><stop stop-color="#688DC8" offset="100%"/></radialGradient><radialGradient cx="50.001%" cy="50.009%" fx="50.001%" fy="50.009%" r="76.156%" gradientTransform="matrix(.52419 0 0 1 .238 0)" id="d"><stop stop-color="#B9DBF5" offset="0%"/><stop stop-color="#AED1EF" offset="20.91%"/><stop stop-color="#91B5DF" offset="57.45%"/><stop stop-color="#688DC8" offset="100%"/></radialGradient></defs><g fill="none" fill-rule="evenodd"><path d="M148.008 66.395c-.171-.523-.269-1.126-.408-1.656.437.022-.652-1.792-.339-2.137a.172.172 0 0 1 .061.168 6.56 6.56 0 0 0-.018-.864c-.006.145-.015.167-.028.068a.82.82 0 0 0 .051-.406c.081.068.075.173-.021.314.036-.19.038-.454.093-.644l.049.087c.142-1.215.166-2.481.184-3.711-.031.672.004-1.214.012-1.093.058-.483.009-.966.003-1.45-.002-.194-.145-1.581.051-.837l-.115-1.888a.343.343 0 0 1 .061.201c.009-.376.044-.835-.039-1.21.002-.015.002.35-.017.327-.234-.283.018-1.344-.012-1.674a.262.262 0 0 0 .027.195c.248-.281.101-1.304.083-1.668-.014-.279-.071-.565-.083-.847-.003-.073.043-.614.067-.299.006-.632-.051-1.251-.035-1.885.003-.134.094-1.071.116-.859-.039-.647.043-1.304.06-1.951.06-.226-.033-1.725-.033-2.309.001-1.152-.044-2.168-.044-3.352.047.02.062.062.046.126.016-.277-.045-.532-.043-.812l.028.109c-.044-.468-.027-.979-.027-1.448a.297.297 0 0 1 .046.175c-.01-.3-.039-.603-.04-.903 0-.09-.03-.89.036-.363.1-1.537-.031-3.468-.388-4.958-.211-.878-.457-1.176-1.31-1.392-.666-.168-2.701-.424-3.288-.089.117-.067.293-.024.419-.07-.763.28-2.07.104-2.878.09a47.742 47.742 0 0 0-3.202.03c-2.667.12-5.924-.079-8.857-.226-3.751-.188-7.423.065-11.165.127-1.727.028-3.478.027-5.213.011-.816-.008-2.635-.226-2.354 1.124l.078-.141c-.035.347-.028.694-.033 1.042-.001.077.032.925 0 .499.135.924.088 1.803.12 2.811l.057-.275c.004.409.085.833.017 1.242-.032-.303-.059.225-.059.271a17.987 17.987 0 0 0-.094-.2c.201.287.063 1.397-.024 1.554a.126.126 0 0 1 .048-.081c.107.246-.165 1.077-.166 1.372-.003.933-.046 1.857-.035 2.79.005.405-.045.784-.076 1.103-.003.029-.104.909-.027.614a50.308 50.308 0 0 0-.126 2.363c.019-.703-.075.276-.069.206-.039.439.008.898-.011 1.339a.253.253 0 0 1 .128-.151c.033.416-.15.645-.163 1.072-.391-.641.173-1.73-.072-2.463.133.397-.063 1.468-.069 1.898.019-.025.038-.05.059-.074.196.362-.053.793-.072 1.156l-.015-.324c-.034.349.01.696-.004 1.045-.007.007-.03-.828-.06-.905-.161.422-.022.822-.052 1.254l-.04-.089c.006.152.008.304.015.456.122.025.114-.566.113-.479.103.253.055.758.04 1.001a.623.623 0 0 1 .036-.294c-.034.035-.029.955-.072 1.141-.016-.198.082-.479-.004-.663-.041-.087-.11.432-.14.052-.065.616.084.907.052 1.544-.006.119.113 1.36.208.958.026.223-.062.927-.113.612l-.009.292c-.016-.148-.058-.293-.078-.44a7.198 7.198 0 0 0-.141 1.738c.017-.539.086 1.014.075.979-.021-.139-.062-.276-.08-.415.099.47.112.946.181 1.422-.016-.145-.044-.289-.062-.434.017.258-.062.88-.051.928.122.242.15 1.227.1 1.457.045-.127.08-.699.055-.765.246.648.176 2.229.116 2.928-.072-.167-.107-.137-.106.091.039-.148.265.527.174.648-.009.012-.14-.258-.163-.192.075.257-.048.615.08.856.012-.412.125.276.107.376a.091.091 0 0 1-.043-.058c-.095.035.075.761.099.304.032.343.045.688.039 1.033.014-.036-.05-.396-.065-.477.058.316.16.765.178 1.099.036-.422.165.602.165.582a3.598 3.598 0 0 0-.055-.327c-.003-.008-.013.404-.057.425-.052.024-.166-.681-.206-.667-.072.025.011.389.015.415-.129-.296-.085.715-.057.807 0 0 .037-.208.025-.22.026.364.124.697.107 1.068-.061-.362-.095.525-.087.442-.033.344 0 .92.014 1.344.021.605-.073.793.442 1.158.466.33.982.179 1.488.172.673-.009 1.32.069 2.001.132-.346-.034.388.012.508.017.53.02 1.083.035 1.593.043.505.008 1.381-.033 1.614.004.669.107 1.381.093 2.056.087-.147.037-.251.001-.312-.106.145-.121.757.053.401.067 2.477.419 5.072-.081 7.378.024 1.14.052 2.373-.224 3.557-.132-.092.03-.186.053-.281.069.357.016.634-.111 1.023-.072-.128.001-.305.043-.414.034.946.08.555-1.189.555-1.902v-5.495-5.87-2.291c0-.324-.161-1.179 0-1.478.262-.486 2.048-.206 2.67-.206h2.947c.536 0 1.637-.224 2.126 0 .395.181.118-.106.288.208.156.288 0 1.171 0 1.494V68.345c.841-.019 1.854-.195 2.683-.038l-.152-.089c.266.019 1.273.09 1.508-.023a2.73 2.73 0 0 1-.382.058c1.187.228 2.364-.181 3.584-.061a.924.924 0 0 1-.256.04c.899.097 2.737-.549 2.194-1.837z" fill="#CBBBA0" fill-rule="nonzero"/><path d="M136.501 50.354c-.008.035-4.268-.334-4.771-.33-.738.007-1.686.162-2.078.87-.28.506-.1 1.151-.073 1.698.04.81.029 1.621-.013 2.431-.009-.862.26-2.233-.075-3.044-.016 1.297-.12 2.636-.023 3.929.023-.286.068-.561.11-.844.001.328.04 3.034-.079 3.031-.005-.486.026-.971.034-1.457.125.49-.087 1.401-.113 1.939a.684.684 0 0 1 .047-.214c.006-.008.111.409.1.413.094-.03.096-1.175.095-1.162-.001.174.095 1.467.01 1.512.266-.137.137-2.366.177-2.712-.088 3.294-.21 6.608-.241 9.897-.004.41-.176 1.443.14 1.724.131.116 1.083.176 1.246.107.65-.272.481-1.343.506-2.079.1-2.906.078-5.818.136-8.723.024-1.226-.043-2.47.02-3.694.046-.897.092-1.121.954-1.365.044-.012.572-.113.497-.141.578.003 1.138.117 1.713.152.543.033 1.125-.118 1.652.046 1.31.406 1.187 1.719 1.17 2.823-.047 3.127-.102 6.27-.325 9.39-.045.628-.146 1.255-.119 1.887.012.277.042 1.606.224 1.823.087.103.525.137.685.133.619-.016.701-.185.902-.668.559-1.342-.082-3.024.256-4.396-.004.014.038.119.033.131.228-.553.08-1.456.099-2.045.026-.801.015-1.596.01-2.396-.003-.428-.082-1.416-.064-1.536.011-.44-.095-.985.022-1.415-.001.002.047.094.041.102.272-.321.107-2.539.13-3.048.029-.632.243-1.559-.195-2.086-.663-.797-1.967-.409-2.84-.683z" fill="#A48A7B" fill-rule="nonzero"/><path d="M137.755 52.256c.122-.213 2.042-1.665 3.017-2.346.565 1.251-.141 7.291-.141 8.824 0 2.164.24 10.639-.168 11.68-.648-.153-2.922-1.796-3.04-2.151-.057-.169.231-13.706.22-15.282" fill="#4D668E" fill-rule="nonzero"/><path d="M122.509 55.349c-.003-.203-.132-.328-.159-.554.089-.182.16-.37-.076-.618a.198.198 0 0 1 .118.003 21.11 21.11 0 0 1-.075-2.332c.051-.239-.033-.662-.032-.866.003-.686-.036-1.482-.036-2.223a.338.338 0 0 1 .116.074c-.044.002-.048-1.091-.056-1.157-.149-1.181-1.304-.832-2.408-1.016-2.102-.35-4.252-.211-6.391-.212-.206.285-.096 1.191-.301 1.235.16.054-.007 1.03-.033 1.138-.013.053-.04.396-.04.407.005-.065-.218.109-.223.139.082.015.129-.025.142-.119-.101.089.165 1.03.217 1.069-.097.001-.153.051-.17.15-.101-.035-.184-.452-.116-.526.059.082-.013.563-.045.571-.004.08.004.16.024.238a.25.25 0 0 1-.085-.205.62.62 0 0 0-.034.369c.069 0 .102-.036.1-.11.065.061.078.136.039.223.059.041.211-.015.016.198-.039-.087-.143-.1-.161-.139a.45.45 0 0 0 .065.211c-.002-.061.025-.08.082-.056.168.185-.126.125-.097.304.162-.055.255.219.312.257-.052-.033-.148-.016-.222-.04a.66.66 0 0 0-.119.394c-.01.035.231.154-.026.127.062.083.065.25.106.315l-.038-.096c0-.006-.09.524-.081.517a.16.16 0 0 0 .056-.154c.075-.055-.125.74-.104.678a.266.266 0 0 1 .182.112c-.06.053-.123.054-.19.002.073.077.24.538.19.614a.575.575 0 0 1-.069-.107c-.009.252.273.174.349.302-.008.156-.31-.09-.363-.02-.066.14.109.012-.069.072a.237.237 0 0 1 .054.184c.016.003.167.004.13.18-.012-.015-.025 1.376-.017 1.526.032.597.282 1.033 1.007.993-.085-.059-.093-.102-.026-.129.295.227 2.511.033 2.515.138.098.031.099-.157.188-.087.09.071-.052.068-.033.07.128.019.32-.011.449-.036a18.4 18.4 0 0 0-.139-.066c.088-.006.12.03.103.017.109-.049.202-.013.366-.029.01.215.644.074.725.088a.188.188 0 0 1-.097-.002c.066.185.969-.073 1.141.094.066-.071.389-.1.223-.029.128.128.675-.012.756.049.306.069.83.059 1.065-.122.114.089.603.112.66.073.054.281.472-.145.575-.415.066-.174.065-1.305.11-1.263-.214-.398-.23-.533-.05-.403z" fill="#A48A7B" fill-rule="nonzero"/><g fill="#FFF"><path d="M116.963 48.396h-1.048c-.17 0-.846-.102-.964.005-.122.11.011.716-.024.891-.071.344-.052.636-.054.985.28.115.683.052.991.083.356.036.727.067 1.097.048.002-.653.044-1.3.002-1.96M118.534 48.501c.463 0 .928-.017 1.388 0 .338.012.754.148 1.07.109.018.303.093.61.082.918-.007.233-.046.802-.212.885-.243.121-.893 0-1.176 0-.374 0-.783.042-1.148-.01-.065-.295-.04-.651-.029-.958.008-.247.173-.692.025-.891"/><path d="M114.973 51.015c.663-.021 1.291.127 1.93.135.099.433.055 1.002.03 1.459-.646.036-1.323-.002-1.956.026-.167-.42-.056-1.08-.056-1.541M118.509 51.225c.444 0 .878.048 1.314.053.43.004.851.122 1.27.103-.13.193-.017.577-.042.813-.027.239-.253.529-.188.754a34.35 34.35 0 0 1-2.482-.051c-.027-.259.186-.545.206-.807.021-.282-.077-.529-.078-.813M114.736 53.329c.767.082 1.563.08 2.327.109.026.556.303 1.275-.027 1.745-.133.188-.25.137-.539.137-.238 0-.477.006-.715 0a31.068 31.068 0 0 0-1.33-.005c-.038-.342.204-.764.258-1.095.042-.263 0-.572 0-.839M118.404 53.459c.58 0 1.106.049 1.676.105.316.031.583.12.912.134.018.324-.02.646-.048.966-.024.271-.12.486-.159.75-.444-.141-.983-.069-1.446-.069-.212 0-.765.081-.931-.029-.356-.236-.11-1.388-.11-1.751" fill-rule="nonzero"/></g><path d="M139.942 37.076c0-.65.084-1.31.008-1.959l-.024.108c-.033-.446.033-.949-.061-1.391-.002.329-.064-.307-.083-.39.117 1.189-.005 2.215.11 3.396.216-.781-.072-2.316-.128-3.173.021.151.012.18-.026.087.018-.328-.083-.63-.112-.953.065.166.044.498.041.679a6.091 6.091 0 0 0-.162-.824c.037.15.063.302.08.456-.002-.04-.06-.27-.077-.375l.057.672c-.073-.719-.174-.952-.92-.994.114-.084.504.006.608.046a1.56 1.56 0 0 0-.611-.114l.29.042a8.058 8.058 0 0 0-1.303-.028.38.38 0 0 1 .097.037c-.305-.002-.61-.024-.915-.031a6.23 6.23 0 0 1 .611-.012c-1.294-.225-2.81-.019-4.136-.059-.725-.022-2.436-.382-2.718.241-.238.525.079 2.027.058 2.65-.044 1.273-.259 2.823-.255 3.92.032-.285.239.747.18.836a3.633 3.633 0 0 1-.064-.373c.278.182-.047 2.177-.066 2.425-.002.034-.014.434-.022.518.035-.325.112-.639.175-.959-.051.518-.205 1.15-.148 1.657-.082-.187-.021-.384-.009-.568-.151.189.105-.511-.09.397.066-.42-.014.105.022.166-.063-.082-.019.271.283.176-.027.008-.225-.104-.253-.138.224.166 2.129.065 2.746.074 1.089.017 1.665.006 2.689.059a6.373 6.373 0 0 0-.31-.029c.875.012 1.559.025 2.462.033-.133-.007-.251-.011-.372-.04.254 0 .659.055.935.028-.07.019-.128.01-.175-.028.088 0 .359-.017.471.002a1.062 1.062 0 0 1-.126-.005c.109-.004.503-.084.521-.109.515-.207-.037-1.766.292-2.081-.042.638.094 1.385-.082 2l.009-.158c-.275.748-1.237.314-1.73.503.057.018.084.009.082-.028-.193-.05-1.361-.017-1.16-.028-.838-.016-1.625-.115-2.447-.046a.46.46 0 0 1 .202.02c-.027.032-.521.085-.536.08.381-.003.875-.015 1.228.055-.035-.001-.188.012-.207.009.495.073 1.07.056 1.576.02-.038.013-.473.007-.47-.009.392-.026.786-.016 1.178-.051l-.284.069c.238-.004.475.005.712.026l-.309-.022c.413-.097.866-.002 1.286-.039a.707.707 0 0 1-.243-.02l.537-.018c-.053.06-.816.164-.893.112.415-.006.851-.022 1.243-.177l-.282.128c.259-.047.646-.25.642-.552l-.012.204c.181-.533.126-1.275.172-1.92l-.036.298a2.344 2.344 0 0 1 .016-.324c-.015.023-.078.358-.063.381.027-.331.074-.659.102-.99l-.057.093c-.061-.048.044-.464.068-.222-.007-.171.025-.331.004-.501l-.006.125c.108-.351.028-.856.052-1.235.013-.209.102-1.74.072-1.327l.035-.715c.009.062.02.125.031.187z" fill="#A48A7B" fill-rule="nonzero"/><g fill="#FFF"><path d="M131.896 33.999c.41 0 .815.047 1.229.047.261 0 .533-.008.79.027.156.023.314.07.474.084.24.02.211.036.176.278-.022.146-.019.293-.019.441 0 .301.045.592.047.895 0 .117-.027.179-.049.28-.479-.024-.954-.129-1.441-.108-.184.008-.367.032-.555.032-.088 0-.39.031-.46-.018-.18-.126-.061-.813-.094-1.018-.026-.159-.066-.321-.066-.484 0-.108.118-.373.063-.424M135.769 34.108c.225.122.647.127.92.126h.679c.265-.001.601.026.845.11.028.184-.146.352-.171.531-.021.149 0 .319 0 .471 0 .334-.039.644-.047.97-.483.054-.968-.188-1.453-.169-.128.005-.592.145-.695.061-.104-.084-.031-.549-.031-.672v-.663c0-.133.035-.665-.062-.732M131.959 36.93c.298-.098.725.086 1.036.096.2.007.395.029.593.03.191.002.392-.018.582.003.084.009.382.008.439.055.118.096-.035.633-.063.787-.038.199-.044.395-.068.594-.571.029-1.146-.007-1.715-.028-.301-.011-.601.027-.896.013-.022-.471.269-1.043.124-1.503M135.863 37.259c.373 0 .77-.035 1.139.027.252.043.508.128.759.147.195.015.325-.057.358.159.026.168 0 .36 0 .529 0 .12.049.347.001.456-.056.131-.172.1-.302.079-.234-.036-.454-.056-.688-.078-.467-.044-.938-.008-1.405-.036-.163-.409.394-.872.123-1.284M132.178 39.659c.073-.043.244-.017.335-.017h.862c.243 0 .451.023.688.064.223.037.415.053.639.064.016.126-.067.244-.078.37-.012.131-.005.275.001.407.007.152.161.537.062.679-.101.145-.51.007-.656-.02-.285-.052-.565-.12-.854-.141a4 4 0 0 0-.657-.009c-.106.01-.233.08-.338.054.004-.485.112-.987.107-1.468M135.8 39.753c.631 0 1.243.051 1.864.145.156.023.268.076.435.077.04.326-.024.711-.042 1.044-.009.172.068.47-.108.538-.217.083-.583-.062-.81-.064h-.689c-.241 0-.47.041-.711.03a26.895 26.895 0 0 1-.033-1.676"/></g><path d="M139.462 55.391c0 .674-.181 1.488-.346 1.357-.328-.26-.414-.684-.414-1.357 0-.672.225-1.076.381-1.219.207-.19.379.546.379 1.219zM124.46 27.847c.43-.042.862.183 1.285.228.326.036.631.107.959.175.872.179 1.734.325 2.618.325 1.883 0 3.772.005 5.621.109.302.017.608 0 .911 0 .474 0 .908.136 1.369.154.604.024 1.137-.51 1.759-.517.307-.004.554.017.693-.363.066-.185.146-.172.013-.328-.112-.128-.589-.069-.716-.074-.622-.024-1.244.002-1.863.002-1.433 0-2.941.166-4.351-.138-1.069-.232-2.232-.081-3.315-.081-1.105 0-2.255-.105-3.36-.001-.476.044-1.083.163-1.478.474" fill="#FFF"/><path d="M148.074 25.639c-.419-.964-.737-1.876-1.277-2.755l.035.198c-.115-.25-.336-.497-.398-.769.131.185-.047-.173-.055-.191l.16.061c-.342-.074-.523-.729-.653-.86a.102.102 0 0 0-.009.073c.148-.091-1.221-1.928-1.425-2.193-.302-.392-.751-1.052-.808-1.248l-.877-1.378c.236.341-.494-.795-.561-.907-.271.194-.15-.277-.382-.551.247.068 1.126 1.133 1.109 1.356.024-.31-.577-.89-.715-1.091-.204.076-.437-.495-.604-.693l.219.195c-.209-.294-.442-.32-.749-.459.001.003.607.206.7.319-.138-.339-.773-.483-.858-.541a43.978 43.978 0 0 0-.358-.05c.067.124.181.184.344.18-.197.026-.614-.044-.758-.073a.36.36 0 0 1 .214.06c.032.061-.706-.069-.83-.106.046-.006.458.047.493-.019.032-.06-.305-.115-.041-.135-.246-.032-.341.033-.566.052.183-.002-1.522.277-1.218.335-.145.048-.662.048-.438-.044l-.203.025.295-.128c-.495-.051-.822-.009-1.208.038.379-.009-.646.081-.626.075l.281-.07c-.123.037-.277.026-.396.049-.064-.191-.118-.802-.059-.972-.022.04-.073.523-.078.501-.125-.507-.125-1.502-.05-2.017.064.118.101.097.108-.061-.036.088-.265-.354-.149-.451.031-.026.108.206.151.134a4.223 4.223 0 0 0-.029-.584c-.038.292-.092-.741-.131-.449l-.037-.747c.003-.006.097.337.097.337-.028-.317-.189-.48-.26-.779.062.315-.287-.353-.289-.355.038.069.079.136.123.201.03.032-.089-.337-.04-.338.148-.002.206.392.341.442.059.022-.127-.353-.117-.331.189.172-.187-.597-.431-.618.004 0 .14.165.154.164-.26-.225-.593-.197-.907-.274.263-.03-.291-.066-.351-.072a9.188 9.188 0 0 0-1.112-.047c-1.441.075-1.887.82-1.944 2.228-.005.057-.007 1.164-.018 1.581-.007.28-.01.88-.033.964-.129.451-.134.962-.16 1.428-.013-.115.027-.185.118-.21-.004-.003-.003.499.118.421-.337.219-1.363.031-1.783.037-.797.012-1.61.101-2.316.107-.936.008-2.003.038-2.953-.027l.197-.064c-.259-.024-.421.104-.714.054.034-.003.261-.031.289-.027-.415-.061-1.004-.03-1.42.054.145-.003.286.017.424.06-.138.019-.277.02-.415.004l.101-.017c.021-.004-.413.014-.276.056-.883-.272-1.721.045-2.716-.154.286-.072-.245-.09-.3-.095.101.001.201.012.3.031-.231-.253-1.826-.179-2.14-.131-.57.087-.919.417-1.449.598l.155.009c-.081.047-.771.694-.781.778a.94.94 0 0 1 .146-.241c-.682.395-.856 1.532-1.369 2.129l.058-.166c-.578.795-1.337 1.816-1.61 2.754-.445-.234-.339 1.295-.727 1.361-.028-.045-.026-.091.008-.138-.527.709-.624 1.153-1.095 1.892-.348.546-1.016 1.373-1.223 1.766-.244.275-.404.613-.591.926-.083.139-.396.902-.32.406-.191.406-.445.84-.388 1.311a.227.227 0 0 1-.041-.163c-.535.809.82.949 1.284.769a.15.15 0 0 0-.129.059c.135.105 2.013-.294 1.919-.28 1.221-.031 2.106-.06 3.269-.071.007.002 1.029-.115 1.306-.108.911.024 1.708-.13 2.622-.13-.008.039-.038.055-.088.048.485.031.921.053 1.497-.063a.162.162 0 0 1-.123.048c.124-.009 1.235-.065.881-.005.815.079 1.732-.028 2.56-.018.807.01 1.616-.014 2.423-.027.501-.008 1.771.166 2.205-.006a4.021 4.021 0 0 1-.268.039c1.022-.243 2.496.013 3.519-.012 2.075-.051 4.258-.061 6.496-.037 2.45.026 4.879.222 7.324.344.901.045 2.596.446 3.439.064 1.188-.539.312-1.77-.039-2.575z" fill="#AC2531" fill-rule="nonzero"/><path d="M94.734 12.441c.526.159 1.169-.048 1.69-.14.438-.079.866-.188 1.292-.247.487-.067.977-.071 1.442.059.471.132 1.015.23 1.477.419.973.398 1.443 1.099 1.907 1.923.366.653.454 2.219-.472 2.508-.509.159-1.012-.259-1.49-.331-.481-.072-.866.315-1.282.437-.714.208-1.447-.344-2.061-.654-.719-.362-1.443-.616-1.884-1.294-.267-.412-.604-.859-.777-1.318-.144-.38-.188-1.165.258-1.417" fill="#DEDC00"/><path d="M94.97 12.127c-.332.266-.438.486-.233.641.368-.281.475-.208.568-.118.369-.281.475-.208.568-.118l.456-.294c.029-.689-1.132.231-1.359-.111z" fill="#DEDC00"/><path d="M95.261 11.782c.273-.545.892-1.227 2.284-1.376l.011.094c-1.352.145-1.947.8-2.21 1.324l-.085-.042z" fill="#836F66" fill-rule="nonzero"/><path d="M94.992 18.835c-.534-.257-1.11-.129-1.59-.554-.307-.273-.521-.725-.67-1.088-.559-1.364 1.275-1.808 2.141-.981.248.239.39.722.543 1.031.154.312.407.68.431 1.028.055.748-.458.797-1.009.521" fill="#F8F6EB"/><path d="M98.06 17.315c-.104.364-.173.729-.458.983-.232.206-.446.555-.759.651-.369.113-.712.032-1.071-.046-.358-.078-.706-.08-1.049-.235-.396-.178-.731-.347-.984-.679-.217-.282-.425-.617-.5-.975-.086-.407-.092-.731.108-1.118.118-.228.274-.483.505-.613.276-.156.707-.156 1.018-.209.2-.035.41-.106.614-.06.305.069.659.274.936.416.453.23 1.085.317 1.469.659.326.289.422.985.185 1.352" fill="#F9B233" fill-rule="nonzero"/><path d="M94.951 12.677c.18-.304.708-.308 1.016-.375.393-.086.78-.156 1.177-.22.379-.063.799.081 1.193.088.56.01 1.011.144 1.536.312.368.118.758.199 1.094.413.394.25.614.566.912.909.148.169.352.324.415.546.055.198.039.34.135.538.152.313.094.738-.015 1.063a1.087 1.087 0 0 1-.669.67c-.386.14-.926.231-1.326.214-.416-.017-.834-.097-1.245-.126-.184-.015-.243-.057-.396.041a2.05 2.05 0 0 0-.349.315c-.129.144-.257.315-.376.469-.139.18-.314.305-.466.481-.153.179-.229.421-.467.473-.235.052-.508.068-.755.108-.64.104-1.118.044-1.664-.32-.484-.324-1.155-.711-1.381-1.277-.12-.299-.215-.744-.1-1.059.138-.376.35-.736.546-1.083.238-.422.456-.863.676-1.299.167-.329.37-.569.531-.889" fill="#F9DA3A" fill-rule="nonzero"/><path d="M101.08 14.419c-.101-.414-.937-.548-1.268-.41-.375.156-.495.585-.438.951.159 1.016 1.852.662 1.786-.252-.009-.13-.035-.228-.142-.319" fill="#95C11F" fill-rule="nonzero"/><path d="M101.013 14.647c-.082-.346-.779-.458-1.057-.342-.312.131-.412.487-.365.794.133.846 1.545.551 1.492-.212-.008-.108-.03-.189-.119-.266" fill="#E86361" fill-rule="nonzero"/><path d="M97.226 10.347c-1.034.794 1.611 1.272 1.06.192-.428.224-.845.411-1.06-.192z" fill="#95C11F"/><path d="M98.027 10.6c.616-.403-.558-.659-.865-.19.19.511.524.365.865.19z" fill="#DEDC00"/><path d="M97.459 16.596c-.534-.256-1.109-.128-1.589-.554-.309-.272-.522-.725-.671-1.088-.559-1.364 1.274-1.808 2.14-.98.249.238.391.72.543 1.03.155.312.408.68.434 1.028.053.747-.46.797-1.011.521" fill="#F8F6EB"/><path d="M94.915 12.532c-.44-.329-.655-.969-.891-1.442-.196-.399-.363-.808-.569-1.186-.236-.433-.523-.828-.904-1.126-.385-.302-.788-.68-1.213-.939-.898-.546-1.741-.509-2.682-.391-.742.093-2.054.952-1.736 1.87.175.502.452 1.069.796 1.412.344.344.617.474.767.881.256.698 1.137.959 1.751 1.269.719.362 1.354.795 2.159.746.489-.03 1.051-.023 1.521-.157.393-.11 1.05-.54.987-1.048" fill="#DEDC00"/><path d="M95.028 12.157c-.018.425-.132.641-.377.568.008-.462-.114-.505-.243-.528.008-.462-.114-.505-.242-.527l-.035-.542c.537-.432.487 1.049.897 1.029z" fill="#DEDC00"/><path d="M95.133 11.717l-.085-.043c.266-.522.439-1.391-.247-2.564l.081-.047c.709 1.209.527 2.11.251 2.654z" fill="#836F66" fill-rule="nonzero"/><path d="M89.619 16.124c.525.278.763.816 1.389.95.402.085.894-.011 1.274-.107 1.43-.361.697-2.099-.483-2.304-.339-.059-.81.114-1.15.175-.343.061-.79.077-1.084.263-.633.401-.369.843.18 1.122" fill="#F8F6EB"/><path d="M88.561 12.582c-.247.313-.518.597-.548.999-.024.327-.185.727-.059 1.056.147.389.443.636.75.899.307.262.54.561.901.763.417.233.785.418 1.24.435.388.014.816-.012 1.176-.166.409-.175.693-.369.896-.779.118-.241.234-.534.194-.813-.048-.335-.335-.707-.494-1.009-.103-.195-.182-.42-.355-.568-.263-.222-.676-.403-.982-.556-.501-.251-.995-.744-1.546-.867-.468-.104-1.131.24-1.292.669" fill="#F9B233" fill-rule="nonzero"/><path d="M94.597 12.499c.138-.327-.173-.753-.303-1.041a21.8 21.8 0 0 0-.521-1.078c-.175-.341-.541-.593-.78-.907-.341-.444-.717-.728-1.164-1.05-.314-.226-.609-.491-.981-.635-.435-.169-.821-.157-1.273-.194-.224-.019-.47-.092-.686-.009-.192.073-.295.17-.513.21-.341.065-.648.364-.846.644a1.097 1.097 0 0 0-.143.936c.117.394.364.883.616 1.195.261.324.572.612.842.925.121.141.19.164.202.343.009.136-.019.324-.048.468-.038.189-.1.394-.153.582-.061.218-.06.434-.11.659-.053.231-.202.437-.103.658.099.221.247.45.361.671.297.576.63.927 1.247 1.148.549.197 1.258.507 1.848.352.311-.082.727-.27.91-.549.221-.334.384-.72.546-1.083.199-.442.424-.88.645-1.315.166-.33.238-.635.399-.956" fill="#F9DA3A" fill-rule="nonzero"/><path d="M89.683 8.349c.419-.22 1.004.414 1.067.809.069.446-.24.868-.593 1.089-.98.612-1.612-1.136-.772-1.756.118-.089.219-.138.357-.112" fill="#95C11F" fill-rule="nonzero"/><path d="M89.376 8.836c.314-.132.797.34.865.619.076.316-.142.596-.404.732-.728.379-1.304-.876-.686-1.267.088-.056.163-.086.272-.06" fill="#E86361" fill-rule="nonzero"/><path d="M95.146 9.343c-.026 1.014-1.656-.414-.653-.572.059.371.139.718.653.572z" fill="#95C11F"/><path d="M94.287 8.554c-.078-.918 1.049.102.831.752-.634.168-.744-.277-.831-.752z" fill="#DEDC00"/><path d="M89.955 12.809c.523.278.762.817 1.389.95.402.085.892-.011 1.273-.107 1.43-.361.653-1.76-.527-1.965-.339-.059-.767-.226-1.106-.164-.343.062-.789.077-1.083.263-.634.402-.369.844.181 1.122" fill="#F8F6EB"/><path d="M94.313 13.644l-.599-.934c-1.101.067-1.794-1.199-3.031-.689-.649.516-.628.033-1.261.495-.538.307-.73.977-.56 1.379.612 1.205-.214 1.342 1.527 2.143.48-.284.649.267 1.186-.2.335.509 1.13-.479 1.5-.085l.367-.235.368-.236c-.738-.667-.571-1.213.503-1.638z" fill="#F9B233"/><path d="M94.758 13.836c.27.165.747.112 1.053.135.266.021.451.109.692.23.517.261.813.513 1.153.974.226.307.56.572.628.959.058.323-.119.717-.386.906-.434.307-.81.642-1.219.976a.771.771 0 0 1-.419.183c-.093.016-.178.027-.261.075-.063.036-.105.12-.179.152-.343.15-.864-.41-1.08-.602-.381-.342-.545-.677-.758-1.15-.23-.517-.604-.993-.381-1.57.131-.338.366-.527.582-.796.174-.217.36-.376.606-.496" fill="#EA8B32" fill-rule="nonzero"/><path d="M94.139 16.938c.157-.684.832-.81 1.472-.497-.291.933-.422.231-1.269.814" fill="#FFF"/><path d="M93.78 13.343c-.294-.12-.534-.536-.735-.768-.175-.199-.355-.298-.595-.418-.518-.261-.898-.351-1.469-.35-.381 0-.793-.11-1.146.064-.294.146-.505.522-.498.85.01.53-.037 1.032-.063 1.559a.79.79 0 0 0 .102.447c.042.083.083.158.094.253.009.072-.033.156-.017.235.084.364.845.452 1.127.51.501.103.869.037 1.375-.074.553-.121 1.158-.103 1.49-.626.193-.307.206-.607.295-.941a1.73 1.73 0 0 0 .038-.783" fill="#EA8B32" fill-rule="nonzero"/><path d="M91.473 15.798c.117-.253-.13-.69-.479-1.007-.13.392.113.309.31.957" fill="#FFF"/><path d="M93.811 15.046c.075-.096.151-.191.216-.301.098-.163.157-.338.226-.51.059-.114.116-.225.172-.34.114-.241.269-.577.315-.812.018-.083.03-.16.044-.235.038-.082.082-.165.104-.247.031-.114.017-.125-.005-.166a2.29 2.29 0 0 1 .038-.12l-.049.078-.009.002-.003-.007.033-.086c-.024.039-.048.069-.072.103-.046.006-.063.002-.137.095-.054.065-.094.15-.137.23-.052.055-.106.112-.163.175-.162.178-.339.502-.466.736-.06.113-.115.227-.172.339-.098.158-.202.312-.275.485a2.254 2.254 0 0 0-.112.353l-.054.12c-.068.171-.145.332-.221.499-.232.35-.559.77-.48 1.004.017.05.11.095.17.096.036.048.127.096.178.079.235-.076.379-.589.523-.983.09-.159.172-.317.271-.473.022-.037.042-.077.065-.114z" stroke="#836F66" stroke-width=".259" fill="#836F66" fill-rule="nonzero"/><path d="M122.335 69.129a39.202 39.202 0 0 0-.1-.22c-2.094 1.482-4.742 1.994-7.007 3.145-.754.383-1.592.818-2.402 1.125-1.067.404-2.259.713-3.361 1.087a9.833 9.833 0 0 0-1.425.606c-.737.386-1.275.418-1.795.926.212.117.274.294.147.134.235.304 1.301-.53 1.499-.57.178-.036.188.158.289.147.32-.034.686-.173 1-.245l-.119-.065c.066-.105.078-.122.26-.262l.075.214c.4-.638.692-.255 1.155-.553l-.071.155c.726-.42 2.269-1.258 2.967-.679l-.145-.337c.225-.094.484-.25.735-.125.292-.625 1.714-.764 2.296-.931v.171c.708-.747 6.575-2.473 6.002-3.723zM102.049 77.205c-.205-.071-.281-.28-.175-.567-.092.169-.279.29-.386.45-.081-.096-.222-.159-.291-.263.05.126.021.288.058.419-.126.013-.327.043-.45.017.01-.038.086-.119.092-.152-1.041-.084-2.1.302-3.152.532a70.874 70.874 0 0 1-3.221.628c-.798.136-1.501.451-2.328.346l.114.118c-.629.121-1.177.248-1.725.198l.053.086c-.205.064-.234-.091-.39-.056-.426.096-.85.274-1.297.354-.422.076-2.267.731-2.364.038-.074.677-1.482.57-2.026.628-1.221.13-2.409.233-3.628.327-.564.043-2.616.108-2.767.622.333-.021.694.016.563.379.248-.117.537-.175.707-.079.415-.179.664-.093 1.073-.111.866-.038 1.86-.185 2.774-.331 1.622-.259 2.91-.604 4.253-.338-.145-.099-.244-.266-.383-.372 1.025-.122 2.303-.684 3.289-.583.567.058.835.202 1.473.111.639-.091 2.107-.543 3.09-.477a9.99 9.99 0 0 0-.022.171c.214-.118.273-.094.5-.165l-.189-.109c.175-.108.528-.164.643-.183.094.15.264.281.336.442-.107-.265-.088-.475.187-.519l-.012.132c.766-.449 1.506-.535 2.33-.6.494-.039 1.332-.544 1.724-.169-.092-.44 1.026-.523 1.392-.635-.228.039.006-.124.028-.159l.037.125c.476-.106.112-.233.09-.255zM139.837 70.934l-.2-.195c-1.347 2.878-3.27 5.266-5.47 7.517a217.794 217.794 0 0 1-3.39 3.407c-.371.363-2.017 1.459-1.643 2.001 1.044-.335 2.002-1.907 2.94-2.334.558-.254.624-.257 1.106-.776.513-.553 1.2-1.085 1.615-1.781l.048.11c.277-.829 1.375-1.325 1.844-1.885.157-.187.387-.618.599-.872.521-.623.863-1.282 1.243-1.896.394-.636 2.197-2.449 1.308-3.296zM127.168 84.934c-.087.019-.171.053-.257.074l.012-.296c-.887 1.294-2.689 2.206-3.948 2.823-.918.45-2.17.936-2.583 1.527.585.317 1.269-.366 1.771-.675.234-.143 1.924-.998 2.066-.931.709-.689 1.653-1.186 2.464-1.74.294-.201.819-.445.993-.758-.22-.18-.325-.122-.518-.024z" fill="#C7D7E4" fill-rule="nonzero"/><path d="M134.03 71.836c0 .374.336.399.664.443-.023.42-.654-.02-.138.442.163.146.729.302 1.08.222.262-.06.664-.119.332-.498-.202-.23-.99-.056-1.273-.056.068-.282.908-.217.775-.553-.15-.377-1.165 0-1.44 0z" fill="#688DC8"/><path d="M135.078 66.33c0-.506-1.179-.039-1.439-.083-.103-.017-.01.119-.111.083-.472-.168.024-.106-.193-.304-.089-.081-.236-.31-.36-.415-.427-.362-2.244-.314-2.299-.747.008.062 1.153-.019 1.247-.139.171-.219-.201-.664-.553-.664a.463.463 0 0 0 .055-.167c-1.007 0-1.018.303-1.518.752-.024.022-1.802 1.191-1.083 1.463-.012.084-.495.511-.553.609-.181.306-.249.626-.595.906-.38.308-.994.421-1.313.729-.042.04-.113.329-.168.413-.276.415-.478.285-.25.775.235.505 1.091.475 1.551.415 1.017-.131 1.949-.645 2.88-1.05.866-.377 1.734-.617 2.446-1.069.219-.139.618-.345.818-.538.096-.092.263-.492.277-.498.268-.115.589.203.913.028.033-.019.565-.46.248-.499z" fill="url(#a)" transform="translate(1 7)"/><path d="M120.707 73.17c.475 0 1.176-.252.442-.609-.313-.152-1.093.438-.442.609zM122.257 73.17c.458 0 .821-.237.32-.562-.664-.432-1.035.6-.32.562zM123.475 73.281c.38 0 .691-.71.026-.665-.439.029-.65.665-.026.665zM119.102 73.336c.08 0 1.632.179 1.052-.442-.377-.402-1.186.472-1.052.442z" fill="#688DC8"/><path d="M124.8 66.613c-.012-.6-1.419-.189-1.581-.086-.26.166-.227.528-.523.694-.314.177-.919-.166-1.273-.166-.029-.216.33-.381-.11-.609-.238-.123-.98-.012-1.273 0-.356.014-.789.248-1.052.277-.483.052-.89-.197-1.218.11-.077.072-.087.401-.166.498-.123.151-.437.373-.628.507-.294.206-.429.459-.646.656-.498.453-1.212 1.073-1.571 1.666-.361.597-.007 1.113.576 1.377.981.446 1.424-.271 2.158-.83.229-.174.577-.322.797-.495.226-.178.347-.332.586-.501.548-.387 1.432-.641 2.077-.83.338-.099.796-.228 1.08-.277.671-.116.713-.193 1.161-.581.178-.154.634-.413.887-.581.173-.115.568-.074.72-.332.024-.04.175-.497-.001-.497z" fill="url(#b)" transform="translate(1 7)"/><path d="M153.927 68.62c-.205.226-.766-.16-.854-.256-.068-.092-.114.172-.178-.055-.105.111-.555.275-.565.04-.071.298-.43-.036-.451.114a.503.503 0 0 0 .041-.142c-.296.134-.624-.044-.623-.112-.069.136-.14.017-.161-.01.095.181-.44-.013-.351-.042a.392.392 0 0 0-.07.165c-.168-.108-.08-.111-.081-.289.017-.003-.44.329-.187.077l-.09.204c-.048.01.043-.198-.043.008l-.047-.151c-.048.048-.069.054-.062.018-.045.014-.061.048-.047.102-.002-.017.004-.028.018-.032-.012.037-.119.077-.202.133.013-.104-.126-.108-.132-.026-.086-.031-.27.074-.311.059.007-.098-.034-.09.01-.117.043-.013.044-.009.001.011-.07.112-.112-.087-.085-.09-.029.006-.098.106-.095.14-.001.042-.082-.235-.029-.168-.042.012-.158.294-.302.126.026-.042-.033-.055-.068-.16-.081.1-.219.135-.146.001-.015.028-.038.123-.054.147-.005-.031-.308-.059-.308-.089.01.01.019.01.027 0 .158-.046-.22-.023-.134.055-.006-.08-.023-.074-.051.017-.051-.031-.027-.284-.109-.151.026-.03-.009.05-.039.118.022-.147-.089-.013-.072-.003.004-.055.016-.056.006-.108-.005-.024-.053.111-.06.099.036-.043.034-.081-.005-.113-.038.044-.198.053-.226.119a.22.22 0 0 0-.024-.171c.008 0-.427.426-.398-.004-.018.048-.103.031-.019.153-.097-.071-.143-.061-.138.03.005-.041-.095-.081-.063-.084-.044.077-.22.102-.239-.066-.107.207-.393.204-.306.012.001.002-.118.164-.118.167-.006-.036.098-.471.033-.519-.02.035-.061.414-.117.402.004.022.049-.152.002-.094-.058.027-.076.08-.053.158-.065-.132-.061-.014-.088.083a.633.633 0 0 0 .013-.225.849.849 0 0 0-.041.218c-.064-.113.02-.187-.066-.069-.029-.127-.084-.028-.077-.106-.053.094-.002.059.003.142-.029-.046-.047-.033-.056.039-.016-.039-.029-.056-.052.009-.012.01-.027-.207-.04-.193-.236 1.195.002 0-.065.181.044-.06.042-.12-.007-.182-.235.267.101-.059-.072.17-.03-.164-.06-.276-.026-.433-.016-.02-.093.368-.093.366a.27.27 0 0 1-.039-.172c.002.009-.08.241-.09.224.015-.026.07-.322.029-.325-.076.043-.088.28-.105.344-.019-.147.009.048-.053.024.01-.05.047-.154.048-.199-.012-.003-.127-.03-.101-.086.014.086-.021.144-.106.174a.17.17 0 0 1-.013-.115c.03.156.124-.319.123-.342.06.037-.138.278-.136.273.053-.122.009-.166-.134-.135-.006-.029-.054.417-.015.293.073.041-.032-.162-.052-.083.036-.028.051-.304.003-.307-.077.111-.157.097-.267.102a1.667 1.667 0 0 0-.021-.173c.019-.001-.104.106-.106.12-.001-.018-.006-.233-.034-.208-.165.153-.21.109-.126-.131.037.086.011.159.014.153l.015-.145c-.025.062.191-.106.228-.079-.101.098-.107.172-.019.221.054-.224.091-.254.3-.123.049-.19.754-.053.61.033-.091-.363.431-.063.387-.048.126-.333.72-.013.972-.176l-.019.121c-.068-.093.39-.117.385-.116-.006.017.388.043.484.068.148-.134 1.312.026 1.31.191.029 0 .647-.09.564.116a.242.242 0 0 1 .025-.099c.016.019.111.13.104.126.239-.418 2.091-.247 2.134.088.045-.232.536.013.391.032.027-.069.038-.079.032-.031.47-.327 1.226.563 1.725.498a.59.59 0 0 1-.205.269z" fill="#92C77C" fill-rule="nonzero"/><path d="M122.783 80.352c0 .374.337.399.664.443-.024.42-.654-.02-.138.442.163.146.729.302 1.08.222.262-.06.664-.119.332-.498-.202-.23-.99-.056-1.273-.056.068-.282.908-.217.775-.553-.149-.377-1.165 0-1.44 0z" fill="#688DC8"/><path d="M123.831 74.846c0-.506-1.179-.039-1.439-.083-.103-.017-.01.119-.111.083-.472-.168.024-.106-.193-.304-.089-.081-.236-.31-.36-.415-.426-.362-2.244-.314-2.299-.747.008.062 1.153-.019 1.247-.139.171-.219-.201-.664-.553-.664a.463.463 0 0 0 .055-.167c-1.007 0-1.018.303-1.518.752-.024.022-1.802 1.191-1.083 1.463-.012.083-.495.511-.553.609-.181.306-.249.626-.595.906-.38.308-.994.421-1.313.729-.042.04-.113.329-.168.413-.276.415-.478.285-.25.775.235.505 1.091.475 1.551.415 1.017-.131 1.949-.645 2.88-1.05.866-.377 1.734-.617 2.446-1.069.219-.139.618-.345.818-.538.096-.092.263-.492.277-.498.268-.115.589.203.913.028.033-.018.564-.459.248-.499z" fill="url(#c)" transform="translate(1 7)"/><path d="M107.965 82.076c.476 0 1.176-.252.442-.609-.313-.153-1.093.438-.442.609zM109.515 82.076c.458 0 .821-.237.32-.562-.664-.432-1.035.6-.32.562zM110.732 82.186c.38 0 .691-.71.026-.665-.438.03-.649.665-.026.665zM106.359 82.242c.079 0 1.632.179 1.052-.442-.376-.403-1.185.472-1.052.442z" fill="#688DC8"/><path d="M112.058 75.519c-.011-.6-1.419-.189-1.581-.086-.26.166-.227.528-.523.694-.314.177-.919-.166-1.273-.166-.029-.216.33-.381-.11-.609-.238-.123-.98-.012-1.273 0-.356.014-.789.248-1.052.277-.483.052-.889-.198-1.218.11-.077.072-.087.401-.166.498-.123.151-.437.373-.628.507-.294.206-.429.459-.646.656-.498.453-1.212 1.073-1.571 1.666-.361.597-.007 1.113.576 1.378.981.446 1.424-.271 2.158-.83.229-.174.577-.322.797-.495.226-.178.347-.332.586-.501.548-.387 1.432-.641 2.077-.83.338-.099.796-.228 1.08-.277.671-.116.713-.193 1.161-.581.178-.154.634-.413.887-.581.173-.115.568-.073.72-.331.023-.043.175-.499-.001-.499z" fill="url(#d)" transform="translate(1 7)"/><path d="M112.041 67.956c-4.459.109-8.915-.379-13.373-.226.177.049-.582.281-.663.178.038-.086.111-.122.219-.107-.996-.006-4.18-.367-4.766.098-1.446.116-2.909-.152-4.367-.169-1.905-.022-3.81.003-5.715.012-3.629.017-7.25.099-10.878.205-2.395.07-4.787.36-6.858.438-.484.018-.94-.191-1.3-.229-1.784-.189-3.639.199-5.442.129.15-.012-.661.149-.852.092a.478.478 0 0 1 .233-.085c-.422-.046-.828 0-1.25.001-.113 0-1.19-.075-.644-.05-.744.188-1.587-.009-2.286.007-.685.015-1.403.093-2.103.102-1.888.024-4.099.164-6.103.176-1.223.008-2.712.074-3.656.053-1.536-.034-3.084.332-4.619.129.089.068-2.088.114-2.322.132-.512.04-.974.079-1.485.079-.604.001-1.072.317-1.638.251l.115-.2c-1.506.194-3.16.206-4.63.28-1.64.083-3.413.293-5.085.319-.711.011-1.308.233-1.982.306-.638.07-1.379-.123-2.056-.061-.37.034-.878.121-1.361.161-.111.009-1.448.199-1.267.263-.197.028-.202-.137-.4-.04l.22-.153c-2.404.056-4.802.418-7.178.614-.69.057-1.769-.039-2.6.092-.605.095-1.012.533-1.72.432.257-.067.49-.183.698-.347-.548-.005-1.177.151-1.726.203.008-.001-.528.096-.284.011a2.091 2.091 0 0 0-.717.144.527.527 0 0 1 .264-.029c-.043.035-.42.141-.352.27a.75.75 0 0 1 .345-.077c-.091.136-.578.172-.701.095-.125-.076.28-.205.089-.241l-.814.325c.165-.101.567-.012.707-.009.319.005 1.007.057 1.465-.051l-.218-.092c.311-.099.63-.132.954-.1-.424.149.516.123.22.092l-.136.195c.191-.388 1.008-.104 1.179-.171a.187.187 0 0 0-.069-.088c.021.333 3.76-.035 4.071-.122-.182.313.735.126.472.011a15.162 15.162 0 0 0 1.82-.1c-.303.037-.095.14.095.133.363-.015.712-.17 1.096-.171a.444.444 0 0 1-.136-.228c.513-.167.307.232.844.203-.096.18-1.757.563-1.871.435.229.255 1.202-.083 1.461-.111.006-.417 1.127-.16.582-.026a4.58 4.58 0 0 0 .799-.098c.085.169-.608.118-.682.207.36.276.591-.042.963-.027l-.063.085.345-.073c-.055-.167-.182-.222-.381-.167.118-.146.687-.177.759-.174a.224.224 0 0 1-.23-.042c-.139-.278.836.012.881.033-.082.027-.485-.06-.515.088-.021.102.313.165.066.244.321.045.314-.087.583-.143-.241.02.104-.266.209-.282.195-.029.305.255.465.234.097-.013 1.039-.348.625-.535.19-.059.783-.003.481.161l.224-.01c-.116.045-.215.137-.328.19.569.193.936.183 1.345.156-.637-.074.998-.309.746-.112l-.312.14c.327-.163.728-.191 1.078-.301l-.328.105c.211-.027.709.13.716.126.084-.107 1.018-.199 1.112-.145-.058-.052-.668-.097-.562-.144.363-.161.895-.005 1.271-.029.231-.015.661-.154.96-.079-.125.109-.099.177.078.206-.166-.114.4-.467.491-.308.052.091-.252.203-.137.302.18-.123.519.066.659-.119-.327-.041.162-.247.284-.19.059.028.438-.063.185-.1.261-.056.525-.075.792-.057.076.072-.421.115-.348.149.386-.009.451-.314.818-.356-.289-.064.233-.393.442-.325a6.166 6.166 0 0 0-.259.125c-.087.092.371-.024.336.132-.045.199-.436.156-.498.34-.05.15.315-.002.317-.002-.089.066-.097.138-.024.216.09-.215.515.007.649-.095.038-.093-.196.011-.171-.051.321-.051.46-.235.815-.189-.299.12 1.219.178 1.422.165 1.221-.08 2.208-.339 3.409-.201-.325-.041.343-.012.391-.013.483-.011.975-.04 1.383-.088.301-.035.983-.135 1.081-.108.477.132 1.101.049 1.585-.017-.151.014-.234-.044-.249-.174.083-.203.607.029.314.092.891.24 1.863-.067 2.715-.102.463-.019.876.097 1.349.01.378-.07.456-.257.827-.27.278-.009.451.157.778.186.274.024.335-.074.627-.079.308-.004 1.449-.153 1.698-.036.091-.049.677-.073.198.067.33.048.375-.224.787-.105.041-.019-.365.041-.319.052.331.082 1.253.042 1.568-.104a.947.947 0 0 1-.47-.113c.264-.036.451.092.348.024-.012.003.486-.023.305-.11.346.171.534.067.927.025.071.622 1.673-.099 2.116-.022-.345.224.3.113.341.111-.109.02-.219.024-.33.01.095.138 1.911.052 2.177.039.435-.021 1.281-.229 1.703-.025l-.12-.172c.015.003 1.221-.09 1.163-.021-.092.05-.19.085-.293.105.403.198.912-.227 1.283.029.159-.361.31-.166.706-.145.198.01.98.002.57.121.641.069 1.439 0 2.092-.005.589-.005.936-.264 1.45-.298-.207.755 1.551-.295 1.696.035-.014.073-.06.109-.137.109.228.049.456.045.683-.011-.275.006.346-.031.276-.029-.018.083-.1.092-.243.028.284.054.382.106.441.148.372.006.763-.128 1.142-.145.529-.023 1.053-.021 1.579-.101-.084.026 1.055-.055.964-.04.64.183 1.326-.119 1.979-.016a.331.331 0 0 0-.219.104c.486-.057.986-.106 1.457-.248a.217.217 0 0 1-.154.126c.255-.004.698.005.932-.142-.314-.063.03.061-.179.056-.236-.087 1.267-.202 1.217-.187-.07-.014-.12.007-.149.062.123.252 1.116.104 1.289.07.17-.034.422-.166.6-.182.04-.004.611.007.282.093.75-.034 1.419-.363 2.187-.398.048.047-.192.044-.206.068l.292.107c-.488.022.106.146-.158.233.48-.097 1.02-.001 1.503.026-.295-.184 1.098-.097 1.074-.097.996.032 2.334.15 3.29-.18 0 .059-.034.092-.1.099.332.041.316-.189.677-.123l-.135.089c.376-.09.74.065 1.117-.059a.154.154 0 0 1-.136.09c.365-.038.776-.01 1.126-.142.024.097-.026.146-.15.148.295.054.81-.028 1.1-.044.607-.032 1.047.025 1.656.056.513.026 5.168.15 5.23-.042-.024.074-.282.064-.335.099.334-.216 1.849-.058 2.319-.035.44.022 2.694.322 2.963-.185.061.069.052.129-.027.18.907-.038 1.815-.034 2.723-.07.347-.014 1.606-.073 1.57-.045.305-.058 3.551-.239 3.561-.084.388.031.759-.159 1.147-.11l-.111.056c2.171.275 4.457.136 6.503.28 1.56.109 4.59.477 5.881-.59-2.587.091-5.16-.122-7.731-.354z" fill="#92C77C" fill-rule="nonzero"/><g fill-rule="nonzero"><path d="M40.932 29.38c-.573-.093-1.031-.141-1.362-.141h-.094a497.3 497.3 0 0 1-.135-4.488c0-.361-.19-.56-.536-.56-.346 0-.535.199-.535.56 0 .829-.052 2.307-.157 4.518-1.348.085-3.106.384-5.233.888l-.067-4.156c0-.331-.182-.513-.513-.513-.341 0-.536.187-.536.51l-.113 4.485a.618.618 0 0 1-.16.055c-.482.092-.583.404-.583.65a.72.72 0 0 0 .246.538.673.673 0 0 0 .461.192l-.059.729v6.946c0 .206.023.439.07.69.047.306.076.536.092.687.037.435.286.665.721.665a.773.773 0 0 0 .561-.232.616.616 0 0 0 .161-.594 12.141 12.141 0 0 1-.069-1.215c0-.446-.014-1.122-.042-2.064a75.675 75.675 0 0 1-.041-2.034c0-.424-.017-1.304-.056-2.848v-.996c1.827-.478 3.553-.785 5.133-.913v.82c0 .271.027.639.082 1.091.053.451.08.863.08 1.225 0 .577.055 1.841.162 3.762.062.695.107 1.197.139 1.503.036.481.31.736.791.736.23 0 .405-.063.521-.188.119-.129.171-.319.153-.567a104.53 104.53 0 0 1-.139-1.621 40.688 40.688 0 0 1-.162-3.625c0-.373-.023-.793-.07-1.251a11.23 11.23 0 0 1-.069-1.064c0-.301-.022-.579-.066-.83h.042c.274 0 .667.037 1.202.115.271.036.481-.009.624-.136.142-.124.213-.321.213-.585-.002-.415-.229-.672-.657-.744z" fill="#41789C"/><path d="M51.381 40.959a.862.862 0 0 0-.08-.348l-.003-.006c-.396-.794-.628-1.287-.689-1.473a4.656 4.656 0 0 1-.339-1.716v-1.659l.133-2.038c.48-.114.585-.452.585-.725a.733.733 0 0 0-.188-.491c-.686-.86-1.604-1.296-2.733-1.296-1.323 0-2.512.494-3.532 1.469-.921.874-1.625 2.051-2.092 3.499-.22.671-.33 1.174-.33 1.496 0 1.938 1.092 2.921 3.245 2.921.543 0 1.014-.106 1.404-.318.242-.146.545-.401.926-.782.433-.432.796-.992 1.084-1.668a5.9 5.9 0 0 0 .387 1.718c.093.249.359.813.815 1.726.146.289.368.436.662.436.48 0 .745-.265.745-.745zm-3.315-8.192c.448 0 .796.071 1.037.213-.095.142-.12.196-.128.221-.128.287-.236.674-.333 1.188-.091.561-.183.991-.272 1.277-.155.464-.31.935-.462 1.407-.24.615-.551 1.124-.924 1.512-.452.467-1 .704-1.627.704-1.244 0-1.849-.529-1.849-1.617 0-.28.068-.642.203-1.076.347-1.132.896-2.057 1.633-2.749.793-.717 1.709-1.08 2.722-1.08z" fill="#4D668E"/><path d="M58.508 40.766c-.275-1.023-.43-1.657-.461-1.89-.122-.642-.2-1.147-.229-1.504a17.13 17.13 0 0 1-.047-1.414c0-.488.008-.844.023-1.054.029-.331.06-.567.093-.715.026-.244-.02-.433-.136-.563-.115-.129-.297-.195-.539-.195-.436 0-.685.229-.722.666l-.115 1.845c-.077 1.277-.154 2.077-.23 2.377-.204.809-.601 1.201-1.212 1.201-.276 0-.531-.07-.781-.215-.695-.396-1.034-1.003-1.034-1.857 0-.413.039-1.05.115-1.893.078-.869.116-1.419.116-1.683 0-.336-.031-.685-.268-.719a.525.525 0 0 0-.423.139c-.46.409-.683 1.757-.683 4.124 0 1.659.471 2.784 1.4 3.344.448.273.968.411 1.544.411.757 0 1.326-.363 1.697-1.079.106.492.192.863.259 1.127.098.393.365.601.775.601.73 0 .884-.443.884-.814 0-.065-.008-.138-.025-.23l-.001-.01zM63.285 33.852c-.585-.489-.768-.665-.826-.733-.184-.184-.36-.368-.529-.552-.147-.161-.223-.321-.223-.475 0-.335.099-.578.279-.726.312-.148.551-.239.728-.272.407-.136.543-.156.587-.156.465 0 .721-.24.721-.675 0-.346-.189-.586-.55-.694-.534-.148-.689-.178-.795-.164a6.766 6.766 0 0 0-1.626.519l-.282.276c-.396.633-.597 1.27-.597 1.893 0 .379.117.737.347 1.063.066.099.322.392.785.898l.746.741a3.8 3.8 0 0 1 .655.829c.332.611.5 1.215.5 1.795 0 2.085-.73 3.099-2.232 3.099-.378 0-.712-.038-.994-.112l-.03-.004c-.239 0-.462.066-.659.197a.662.662 0 0 0-.321.582c0 .22.085.418.254.59a.91.91 0 0 0 .585.281 6.71 6.71 0 0 0 1.155.118c2.584 0 3.894-1.599 3.894-4.75 0-.959-.239-1.837-.711-2.608-.194-.323-.483-.645-.861-.96z" fill="#41789C"/><path d="M81.271 35.921c.063-.822.101-1.383.116-1.717.2-3.941.301-6.872.301-8.711 0-.563-.285-.861-.825-.861-.541 0-.826.298-.826.861 0 3.191-.022 5.825-.064 7.831-.68-.282-1.347-.426-1.986-.426-1.592 0-2.906.438-3.908 1.302-1.069.914-1.611 2.144-1.611 3.656 0 1.094.323 1.96.962 2.575.638.614 1.545.925 2.699.925 1.458 0 2.739-.396 3.794-1.167v2.251c0 .174.072.467.559.467.442 0 .49-.294.49-.417.015-.434.059-1.257.139-2.591.062-1.145.093-2.059.093-2.715-.003-.209.02-.623.067-1.263zm-1.284-.79a11.1 11.1 0 0 0-.021.498c-.03.713-.046 1.244-.046 1.533v.902c-.445.464-1.024.856-1.725 1.165-.713.316-1.409.476-2.069.476-.63 0-1.128-.168-1.48-.5-.356-.333-.53-.782-.53-1.371 0-1.021.382-1.839 1.137-2.431.7-.566 1.626-.853 2.75-.853.849-.001 1.516.195 1.984.581zM89.971 37.631c-.66.286-1.182.43-1.55.43-1.722 0-2.813-.618-3.329-1.889.167.029.359.044.574.044 1.015 0 2.067-.237 3.128-.705 1.218-.545 1.811-1.177 1.761-1.876-.048-.758-.586-1.539-1.598-2.321-1.004-.777-1.979-1.171-2.897-1.171-.776 0-1.49.417-2.121 1.239-.623.813-.938 1.683-.938 2.585 0 3.813 1.823 5.746 5.421 5.746.534 0 .967-.048 1.285-.144.163-.049.488-.191.966-.423.337-.16.508-.406.508-.733a.855.855 0 0 0-.24-.603c-.25-.261-.614-.329-.97-.179zm-3.927-5.837c.578 0 1.202.211 1.855.629.636.407.958.817.958 1.219 0 .461-.534.835-1.584 1.111-.31.074-1.152.215-2.506.421a7.134 7.134 0 0 1-.117-1.208c0-.531.144-1.036.426-1.501.274-.451.591-.671.968-.671z" fill="#4D668E"/><path d="M92.937 41.611c.532 0 .813-.282.813-.814v-3.834c.53-.911 1.135-1.949 1.164-1.995.558-.702 1.236-1.043 2.075-1.043.438 0 .771.222 1.016.679.149.267.302.739.453 1.402.09.426.372.651.817.651.716 0 .865-.417.865-.768 0-.796-.313-1.593-.93-2.368-.668-.828-1.408-1.249-2.199-1.249-.892 0-1.637.284-2.211.842-.354.327-.71.837-1.062 1.521-.034-.227-.062-.4-.081-.52-.061-.599-.1-1.064-.116-1.387-.038-.451-.3-.689-.757-.689-.235 0-.415.064-.532.191-.12.129-.172.318-.153.567.055.5.083.939.083 1.306 0 .169.009.396.028.691.018.277.027.512.027.698 0 .252-.012.542-.034.86-.023.333-.035.605-.035.807 0 .24-.012.628-.034 1.188a32.53 32.53 0 0 0-.035 1.151v1.296c.001.536.29.817.838.817zM16.529 59.955c-1.113-1.312-1.926-2.473-2.418-3.456-.882-1.515-1.592-2.678-2.104-3.444a8.744 8.744 0 0 1-.382-.801c.392-.279.775-.584 1.147-.912 1.088-1.103 1.861-1.923 2.293-2.431a.944.944 0 0 0 .288-.686.916.916 0 0 0-.225-.61c-.299-.348-.725-.375-1.073-.023-.871 1.008-1.685 1.846-2.418 2.489a65.006 65.006 0 0 1-2.028 1.679c.125-1.71.188-2.991.188-3.812 0-1.923-.193-3.289-.577-4.06-.157-.305-.391-.459-.694-.459-.696 0-.842.431-.842.792a.82.82 0 0 0 .099.397c.241.522.364 1.643.364 3.33 0 .826-.078 2.167-.231 3.984-.153 1.824-.231 3.241-.231 4.212 0 .508.02 1.203.058 2.066.038.894.058 1.566.058 2.055 0 .563.289.861.837.861.533 0 .814-.29.814-.837 0-.509-.02-1.212-.059-2.089a51.886 51.886 0 0 1-.058-2.055c0-.022.01-.268.136-2.462.279-.211.588-.423.92-.632.126.255.229.471.313.651.847 1.528 1.523 2.699 2.005 3.467 1.177 2.424 2.169 3.806 3.036 4.225.156.069.293.103.419.103.435 0 .673-.265.673-.745 0-.274-.103-.541-.305-.792l-.003-.005zM19.962 58.411c0-.754-.039-1.46-.116-2.095-.188-2.026-.302-3.41-.348-4.24-.322-2.63-.658-4.745-.998-6.286-.132-.594-.451-.719-.695-.719-.19 0-.337.059-.434.176-.129.154-.161.393-.1.73.106.567.207 1.536.299 2.88.106 1.549.208 2.704.301 3.431.204 1.944.324 3.268.37 4.05.047.519.07 1.216.07 2.073 0 .178.031.442.094.786.06.333.091.613.091.835 0 .548.289.837.837.837s.837-.29.837-.837c0-.242-.036-.538-.106-.88a4.052 4.052 0 0 1-.102-.741z" fill="#41789C"/><path d="M28.314 57.699c-.66.286-1.182.43-1.55.43-1.722 0-2.813-.618-3.329-1.889.167.029.359.044.574.044 1.015 0 2.067-.237 3.128-.705 1.218-.545 1.811-1.177 1.761-1.876-.048-.758-.586-1.539-1.598-2.321-1.004-.777-1.979-1.171-2.897-1.171-.776 0-1.49.417-2.121 1.239-.623.813-.938 1.683-.938 2.585 0 3.813 1.823 5.746 5.421 5.746.534 0 .967-.048 1.285-.144.163-.049.488-.191.966-.423.337-.16.508-.406.508-.733a.855.855 0 0 0-.24-.603c-.248-.262-.613-.328-.97-.179zm-2.697-2.877c-.31.074-1.152.215-2.506.421a7.134 7.134 0 0 1-.117-1.208c0-.531.144-1.036.426-1.501.273-.452.591-.672.968-.672.578 0 1.202.211 1.855.629.636.407.958.817.958 1.219 0 .462-.534.836-1.584 1.112z" fill="#4D668E"/><path d="M32.013 46.136c-.559.035-.885.516-.965 1.413a4.01 4.01 0 0 0-.071.397.6.6 0 0 0 .107.505c.092.082.224.123.398.123.156 0 .346-.032.57-.097.765-.215 1.151-.682 1.151-1.388v-.037l-.021-.03c-.412-.614-.796-.903-1.169-.886zM31.683 50.119c-.237.027-.324.162-.35.254-.177.384-.266.888-.266 1.497 0 .583-.085 1.434-.253 2.529-.17 1.098-.256 1.973-.256 2.6 0 .045-.008.186-.023.421-.016.244-.023.389-.023.436 0 .773-.024 1.07-.044 1.182-.055.286.007.523.181.706.169.179.382.27.631.27.445 0 .719-.243.79-.704.063-.408.094-.896.094-1.454 0-.045.007-.189.022-.44v-.417c0-.592.043-1.488.128-2.666.086-1.204.127-2.074.127-2.66 0-.495-.113-.958-.34-1.379-.088-.154-.244-.214-.418-.175zM38.178 54.054c-.354 0-.654.016-.888.047-.718.087-1.44.509-2.149 1.254.02-.533.022-.872.009-1.034-.064-.565-.388-.685-.646-.685-.175 0-.308.053-.393.157-.103.125-.128.31-.079.541v2.57c0 .161-.024.739-.139 2.593v1.343c0 .42.228.652.641.652.413 0 .64-.231.64-.652v-1.25c0-.743-.007-1.406-.021-1.971a.678.678 0 0 0 .342-.291c.195-.181.331-.31.41-.388.503-.532.869-.877 1.106-1.037.254-.24.655-.361 1.191-.361.808 0 1.22 1.062 1.225 3.157h-.001l.001.035h.007c-.016.15-.021.437-.03.987-.047.629-.047.665-.047.68 0 .518.289.791.837.791s.837-.273.837-.791c0-.059.008-.155.023-.301v-1.366c0-1.126-.236-2.157-.702-3.064-.54-1.071-1.272-1.616-2.174-1.616z" fill="#41789C"/><path d="M49.106 57.699c-.66.286-1.182.43-1.55.43-1.722 0-2.813-.618-3.329-1.889.167.029.359.044.574.044 1.015 0 2.067-.237 3.128-.705 1.218-.545 1.811-1.177 1.761-1.876-.048-.758-.586-1.539-1.598-2.321-1.004-.777-1.979-1.171-2.897-1.171-.776 0-1.49.417-2.121 1.239-.623.813-.938 1.683-.938 2.585 0 3.813 1.823 5.746 5.421 5.746.534 0 .967-.048 1.285-.144.163-.049.488-.191.966-.423.337-.16.508-.406.508-.733a.855.855 0 0 0-.24-.603c-.248-.262-.614-.328-.97-.179zm-3.926-5.837c.578 0 1.202.211 1.855.629.636.407.958.817.958 1.219 0 .461-.534.835-1.584 1.111-.31.074-1.152.215-2.506.421a7.134 7.134 0 0 1-.117-1.208c0-.531.144-1.036.426-1.501.273-.451.591-.671.968-.671z" fill="#4D668E"/><path d="M55.45 54.054c-.354 0-.654.016-.888.047-.718.087-1.44.509-2.149 1.254.02-.533.022-.872.009-1.034-.064-.565-.388-.685-.646-.685-.175 0-.308.053-.393.157-.103.125-.128.31-.079.541v2.57c0 .161-.024.739-.139 2.593v1.343c0 .42.228.652.641.652.413 0 .64-.231.64-.652v-1.25c0-.743-.007-1.406-.021-1.971a.678.678 0 0 0 .342-.291c.195-.181.331-.31.41-.388.503-.532.869-.877 1.106-1.037.254-.24.655-.361 1.191-.361.808 0 1.22 1.062 1.225 3.157h-.001l.001.035h.007c-.016.15-.021.437-.03.987-.047.629-.047.665-.047.68 0 .518.289.791.837.791s.837-.273.837-.791c0-.059.008-.155.023-.301v-1.366c0-1.126-.236-2.157-.702-3.064-.54-1.071-1.271-1.616-2.174-1.616zM72.387 46.738c-1.793-.139-3.203-.139-4.199.002-.908.169-1.546.302-1.896.396-.504.134-.609.464-.609.717 0 .254.067.442.202.557a.568.568 0 0 0 .441.128 43.47 43.47 0 0 1 .486 4.859c-.391.07-.597.336-.597.776 0 .405.195.663.582.753.013.439.02 1.073.02 1.933v1.873a32.141 32.141 0 0 0 0 1.766c.021.669.43.81.77.81.466 0 .739-.253.791-.732.075-.714.105-1.351.09-1.891l-.027-1.128c-.01-.386-.015-.59-.03-.698h.012c0-.741-.006-1.311-.019-1.699 1.099.085 2.279.128 3.511.128.518 0 .791-.273.791-.791 0-.51-.28-.791-.791-.791-1.467 0-2.675-.05-3.594-.15a63.454 63.454 0 0 0-.643-5.202c.29-.023.504-.035.658-.035.962-.076 2.32-.076 4.037 0h.005c.517 0 .79-.273.79-.791-.001-.509-.281-.79-.781-.79zM80.041 50.756c-.041-.021-.197-.088-1.086-.445-.194-.069-.408.102-.702.569-.261.41-.393.802-.393 1.164 0 .167.195.283.695.416.411.11.729.167.941.167 1.064 0 1.287-.506 1.287-.93.001-.354-.247-.67-.742-.941zM80.641 60.834c-.284-1.025-.443-1.659-.475-1.89a15.4 15.4 0 0 1-.237-1.504 17.13 17.13 0 0 1-.047-1.414c0-.499.009-.844.027-1.052.036-.333.072-.568.111-.718.026-.244-.02-.433-.136-.563-.115-.129-.297-.195-.539-.195-.436 0-.685.229-.722.665l-.139 1.847c-.076 1.279-.153 2.079-.229 2.377-.203.809-.597 1.201-1.203 1.201a1.5 1.5 0 0 1-.774-.214c-.691-.396-1.028-1.003-1.028-1.857 0-.413.039-1.05.115-1.893.078-.869.116-1.419.116-1.683 0-.336-.031-.685-.268-.719a.53.53 0 0 0-.423.139c-.46.409-.683 1.757-.683 4.124 0 1.659.471 2.784 1.4 3.344.448.273.968.411 1.544.411.757 0 1.326-.363 1.697-1.079.106.492.192.863.259 1.127.098.393.365.601.775.601.73 0 .884-.443.884-.814 0-.067-.009-.143-.026-.232l.001-.009zM75.919 52.626c.96 0 1.161-.443 1.161-.814 0-.284-.171-.565-.511-.837a2.843 2.843 0 0 0-.846-.435l-.045-.014-.042.02c-.23.108-.47.216-.727.329-.332.192-.5.429-.5.706 0 .247.186.481.566.715.358.219.674.33.944.33zM88.39 53.307c-.295-.174-.451-.339-.451-.476 0-.317.177-.629.526-.928.377-.324.752-.64 1.134-.96a2.29 2.29 0 0 0 .609-1.562c0-.873-.243-1.607-.724-2.184-.53-.627-1.277-.946-2.221-.946-1.865 0-3.172.866-3.885 2.575-.481 1.165-.726 2.972-.726 5.371v2.741l-.693-.059c-.252-.021-.441.035-.572.157-.128.12-.193.302-.193.542 0 .451.238.708.688.744l.771.061v.213c0 1.036-.023 1.667-.067 1.872a.597.597 0 0 0 .19.614c.171.15.383.227.632.227.416 0 .684-.208.774-.603.081-.35.121-1.061.121-2.114v-1.624c0-.339-.012-.93-.035-1.754a74.254 74.254 0 0 1-.034-1.91c0-1.74.177-3.068.523-3.943.479-1.152 1.298-1.712 2.506-1.712.488 0 .844.159 1.085.485.245.333.37.746.37 1.229 0 .273-.197.595-.586.955-.982.88-1.152 1.052-1.192 1.102-.433.515-.652 1.079-.652 1.678 0 .283.17.571.515.864.246.17.484.339.714.508.592.441.975.763 1.138.957.35.408.527.928.527 1.546 0 .699-.18 1.299-.533 1.786-.381.528-.871.785-1.5.785-.224 0-.464-.164-.715-.484a13.09 13.09 0 0 1-.536-.768c-.162-.198-.357-.299-.578-.299-.511 0-.791.256-.791.722 0 .168.056.319.163.443.943 1.231 1.747 1.83 2.457 1.83 1.051 0 1.923-.412 2.594-1.226.616-.774.929-1.71.929-2.783 0-.888-.242-1.652-.72-2.272-.257-.34-.764-.794-1.562-1.4z" fill="#41789C"/><path d="M98.793 57.699c-.66.286-1.182.43-1.55.43-1.722 0-2.813-.618-3.329-1.889.167.029.359.044.574.044 1.015 0 2.067-.237 3.128-.705 1.218-.545 1.811-1.177 1.761-1.876-.048-.758-.586-1.539-1.598-2.321-1.004-.777-1.979-1.171-2.897-1.171-.776 0-1.49.417-2.121 1.239-.623.813-.938 1.683-.938 2.585 0 3.813 1.823 5.746 5.421 5.746.534 0 .967-.048 1.285-.144.163-.049.488-.191.966-.423.337-.16.508-.406.508-.733a.855.855 0 0 0-.24-.603c-.249-.262-.614-.328-.97-.179zm-2.697-2.877c-.31.074-1.152.215-2.506.421a7.134 7.134 0 0 1-.117-1.208c0-.531.144-1.036.426-1.501.273-.452.591-.672.968-.672.578 0 1.202.211 1.855.629.636.407.958.817.958 1.219 0 .462-.534.836-1.584 1.112z" fill="#4D668E"/></g></g></svg>